<mxfile host="Electron" agent="Mozilla/5.0 (Windows NT 10.0; Win64; x64) AppleWebKit/537.36 (KHTML, like Gecko) draw.io/27.0.2 Chrome/134.0.6998.205 Electron/35.3.0 Safari/537.36" version="27.0.2">
  <diagram name="Страница — 1" id="p6m66AcIY42godJlNhnS">
    <mxGraphModel dx="1042" dy="634" grid="1" gridSize="10" guides="1" tooltips="1" connect="1" arrows="1" fold="1" page="1" pageScale="1" pageWidth="827" pageHeight="1169" math="0" shadow="0">
      <root>
        <mxCell id="0" />
        <mxCell id="1" parent="0" />
        <mxCell id="_BGWMvQDyLr9viPzPUrb-41" value="&lt;div style=&quot;text-align: center;&quot;&gt;&lt;font style=&quot;font-size: 12px;&quot;&gt;Работа с Окном&lt;/font&gt;&lt;/div&gt;&lt;div&gt;&lt;br&gt;&lt;/div&gt;1. Инициализация окна с заданием:&amp;nbsp; ширины и высоты; названия;&lt;br&gt;&lt;div&gt;&lt;br&gt;&lt;/div&gt;&lt;div&gt;2. Настройка окна отображения с заданием: координаты появления (x, y); ширины и высоты; функции масштабирования;&lt;/div&gt;&lt;div&gt;&lt;br&gt;&lt;/div&gt;&lt;div&gt;3. Настройка обновления окна рендеринга: частота обновления; получение времени отображения одного кадра.&lt;/div&gt;" style="text;html=1;align=left;verticalAlign=top;rounded=0;fontSize=9;labelPosition=center;verticalLabelPosition=middle;spacingBottom=0;labelBorderColor=default;whiteSpace=wrap;textShadow=0;labelBackgroundColor=default;" parent="1" vertex="1">
          <mxGeometry x="270" y="90" width="230" height="150" as="geometry" />
        </mxCell>
        <mxCell id="_BGWMvQDyLr9viPzPUrb-47" value="&lt;div style=&quot;text-align: center;&quot;&gt;&lt;span style=&quot;font-size: 12px;&quot;&gt;Загрузка 3д-Объекта&lt;/span&gt;&lt;/div&gt;&lt;div&gt;&lt;br&gt;&lt;/div&gt;1. Определение структуры хранения 3д-Объекта в памяти;&lt;div&gt;&lt;br&gt;&lt;/div&gt;&lt;div&gt;2. Создание объекта буфера вершин - VBO для хранения последовательностей вершин и объекта массивов вершин - VAO для хранения вершин и их атрибутов;&lt;br&gt;&lt;div&gt;&lt;br&gt;&lt;/div&gt;&lt;div&gt;3. Загрузка в память координат вершин (x, y, z) и атрибутов (цвет/текстура, карту нормалей, материал, индексирование вершин и др.);&lt;/div&gt;&lt;/div&gt;&lt;div&gt;&lt;br&gt;&lt;/div&gt;&lt;div&gt;4. Удаление VBO и VAO после завершения основного цикла.&lt;/div&gt;" style="text;html=1;align=left;verticalAlign=top;rounded=0;fontSize=9;labelPosition=center;verticalLabelPosition=middle;spacingBottom=0;labelBorderColor=default;whiteSpace=wrap;textShadow=0;labelBackgroundColor=default;" parent="1" vertex="1">
          <mxGeometry x="270" y="240" width="230" height="190" as="geometry" />
        </mxCell>
        <mxCell id="_BGWMvQDyLr9viPzPUrb-48" value="&lt;div style=&quot;text-align: center;&quot;&gt;&lt;span style=&quot;font-size: 12px;&quot;&gt;Работа с Шейдерами&lt;/span&gt;&lt;/div&gt;&lt;div&gt;&lt;br&gt;&lt;/div&gt;1. Написание кода вершинного шейдера - VSh (определение положения вершин) и фрагментного шейдера - FSh (отображение пикселя);&lt;div&gt;&lt;br&gt;&lt;/div&gt;&lt;div&gt;2. Загрузка кода VSh и FSh в память в качестве отдельных строк;&lt;/div&gt;&lt;div&gt;&lt;br&gt;&lt;/div&gt;&lt;div&gt;3. Компиляция шейдеров внутри программы;&lt;/div&gt;&lt;div&gt;&lt;br&gt;&lt;/div&gt;&lt;div&gt;4. Создание шейдерной программы и линковка к ней скомпилированных шейдеров;&lt;/div&gt;&lt;div&gt;&lt;br&gt;&lt;/div&gt;&lt;div&gt;5. Очистка памяти от использованных шейдеров, так как они уже привязаны к готовой программе;&lt;/div&gt;&lt;div&gt;&lt;br&gt;&lt;/div&gt;&lt;div&gt;6. Удаление шейдерной программы после завершения основного цикла.&lt;/div&gt;" style="text;html=1;align=left;verticalAlign=top;rounded=0;fontSize=9;labelPosition=center;verticalLabelPosition=middle;spacingBottom=0;labelBorderColor=default;whiteSpace=wrap;textShadow=0;labelBackgroundColor=default;" parent="1" vertex="1">
          <mxGeometry x="270" y="430" width="230" height="220" as="geometry" />
        </mxCell>
        <mxCell id="_BGWMvQDyLr9viPzPUrb-49" value="&lt;div style=&quot;text-align: center;&quot;&gt;&lt;span style=&quot;font-size: 12px;&quot;&gt;Обработка Клавиш&lt;/span&gt;&lt;/div&gt;&lt;div&gt;&lt;br&gt;&lt;/div&gt;1. Создание функции для обработки клавиш;&lt;div&gt;&lt;br&gt;&lt;/div&gt;&lt;div&gt;2. Настройка поведения при нажатии определённой клавиши по ходу разработки;&lt;/div&gt;&lt;div&gt;&lt;br&gt;&lt;/div&gt;&lt;div&gt;3. Встраивание функции в основной цикл программы.&lt;/div&gt;" style="text;html=1;align=left;verticalAlign=top;rounded=0;fontSize=9;labelPosition=center;verticalLabelPosition=middle;spacingBottom=0;labelBorderColor=default;whiteSpace=wrap;textShadow=0;labelBackgroundColor=default;" parent="1" vertex="1">
          <mxGeometry x="270" y="650" width="230" height="100" as="geometry" />
        </mxCell>
        <mxCell id="_BGWMvQDyLr9viPzPUrb-50" value="&lt;div style=&quot;text-align: center;&quot;&gt;&lt;span style=&quot;font-size: 12px;&quot;&gt;Структура Программы&lt;/span&gt;&lt;/div&gt;&lt;div&gt;&lt;br&gt;&lt;/div&gt;1. Инициализация библиотек: GLM&amp;nbsp; - работа с матрицами и векторами; GLFW - фреймворк, предоставляющий инструменты для отображения 3д-объектов; GLAD - загружает указатели на функции OpenGL;&lt;br&gt;&lt;div&gt;&lt;br&gt;&lt;/div&gt;&lt;div&gt;2. Инициализация используемых объектов: окно, окно рендеринга, 3д-объекты, шейдеры, текстуры и др.;&lt;/div&gt;&lt;div&gt;&lt;br&gt;&lt;/div&gt;&lt;div&gt;3. Создание главного цикла программы: обработка клавиш, обновление позиции/цвета/текстуры и др. 3д-объекта, отрисовка объектов и другая логика;&lt;/div&gt;&lt;div&gt;&lt;br&gt;&lt;/div&gt;&lt;div&gt;4. Область очистки: удаление созданных объектов и очистка выделенной памяти.&lt;/div&gt;" style="text;html=1;align=left;verticalAlign=top;rounded=0;fontSize=9;labelPosition=center;verticalLabelPosition=middle;spacingBottom=0;labelBorderColor=default;whiteSpace=wrap;textShadow=0;labelBackgroundColor=default;" parent="1" vertex="1">
          <mxGeometry x="10" y="340" width="230" height="210" as="geometry" />
        </mxCell>
        <mxCell id="9UNNN6jVMnaO8jze4Gs4-1" value="&lt;div style=&quot;text-align: center;&quot;&gt;&lt;span style=&quot;font-size: 12px;&quot;&gt;Работа с Камерой&lt;/span&gt;&lt;/div&gt;&lt;div style=&quot;text-align: center;&quot;&gt;&lt;span style=&quot;font-size: 12px;&quot;&gt;&lt;br&gt;&lt;/span&gt;&lt;/div&gt;&lt;div style=&quot;text-align: center;&quot;&gt;&lt;span style=&quot;font-size: 12px;&quot;&gt;&lt;br&gt;&lt;/span&gt;&lt;/div&gt;" style="text;html=1;align=left;verticalAlign=top;rounded=0;fontSize=9;labelPosition=center;verticalLabelPosition=middle;spacingBottom=0;labelBorderColor=default;whiteSpace=wrap;textShadow=0;labelBackgroundColor=default;" vertex="1" parent="1">
          <mxGeometry x="510" y="650" width="230" height="100" as="geometry" />
        </mxCell>
      </root>
    </mxGraphModel>
  </diagram>
</mxfile>
